HIERARCHY
ROOT Hips
{
	OFFSET 0.00000 0.00000 0.00000
	CHANNELS 6 Xposition Yposition Zposition Yrotation Zrotation Xrotation 
	JOINT Lumbar
	{
		OFFSET 0 0 0
		CHANNELS 3 Zrotation Xrotation Yrotation
		JOINT Neck
		{
			OFFSET 0.00 0.2701 0.00
			CHANNELS 3 Zrotation Xrotation Yrotation
			End Site
			{
				OFFSET 0.00 0.1379 0.00
			}
		}
		JOINT RightShoulder
		{
			OFFSET 0.0119 0.2289 0.1181
			CHANNELS 3 Zrotation Xrotation Yrotation
			JOINT RightElbow
			{
				OFFSET 0.00 -0.1475 0.00
				CHANNELS 2 Zrotation Yrotation
				JOINT RightWrist
				{
					OFFSET 0.00 -0.1605 0.00
					CHANNELS 2 Zrotation Xrotation
					End Site
					{
						OFFSET 0.0040 -0.1068 0.0006
					}
				}
			}
		}
		JOINT LeftShoulder
		{
			OFFSET 0.0119 0.2289 -0.1181
			CHANNELS 3 Zrotation Xrotation Yrotation
			JOINT LeftElbow
			{
				OFFSET 0.00 -0.1475 0.00
				CHANNELS 2 Zrotation Yrotation
				JOINT LeftWrist
				{
					OFFSET 0.00 -0.1605 0.00
					CHANNELS 2 Zrotation Xrotation
					End Site
					{
						OFFSET 0.0040 -0.1068 -0.0006
					}
				}
			}
		}
	}
	JOINT RightHip
	{
		OFFSET 0.0316 -0.0424 0.0458
		CHANNELS 3 Zrotation Xrotation Yrotation
		JOINT RightKnee
		{
			OFFSET 0.00 -0.2438 0.00
			CHANNELS 1 Zrotation
			JOINT RightAnkle
			{
				OFFSET 0.00 -0.2449 0.00
				CHANNELS 3 Zrotation Xrotation Yrotation
				End Site
				{
					OFFSET 0.1237 -0.0542 0.0051
				}
			}
		}
	}
	JOINT LeftHip
	{
		OFFSET 0.0316 -0.0424 -0.0458
		CHANNELS 3 Zrotation Xrotation Yrotation
		JOINT LeftKnee
		{
			OFFSET 0.00 -0.2438 0.00
			CHANNELS 1 Zrotation
			JOINT LeftAnkle
			{
				OFFSET 0.00 -0.2449 0.00
				CHANNELS 3 Zrotation Xrotation Yrotation
				End Site
				{
					OFFSET 0.1237 -0.0542 -0.0051
				}
			}
		}
	}
}
MOTION
Frames: 25
Frame Time: 0.02
-0.67834 -0.01409 -0.12262 273.95402 -26.99336 -4.54862 34.15947 4.98474 -1.8479 -5.72932 -0.34043 -2.11905 35.30797 14.51456 40.2765 126.05953 79.9505 -1.81726 -2.99214 -1.57598 10.13774 -53.70999 100.77694 -103.57575 16.26869 -1.57525 56.93453 2.98354 -9.28493 -24.34708 -7.95174 -1.05186 -2.81445 31.06489 11.39644 4.22312 -30.5432 -8.01886 -0.64985 2.00923
-0.6793 -0.01466 -0.11557 275.27974 -27.04842 -4.28963 34.25238 4.96868 -1.85499 -5.83542 -0.27276 -2.11905 35.58241 14.54356 40.0009 125.97132 80.00627 -1.25952 -2.612 -1.70139 10.46075 -53.67663 100.69504 -104.43503 17.20555 -1.57818 56.59118 3.14779 -9.2011 -23.46448 -8.04455 -0.90335 -2.74662 30.59837 11.59005 4.25461 -30.59042 -8.11967 -0.69871 1.98921
-0.68026 -0.01532 -0.10814 276.60452 -27.05959 -3.96704 34.35762 4.93963 -1.8628 -5.93102 -0.20745 -2.11905 35.88769 14.54698 39.69167 125.89021 80.08048 -0.47738 -2.08008 -1.80303 10.73987 -53.65081 100.60363 -105.60114 18.52342 -1.57959 56.04159 3.21355 -9.15054 -23.10479 -8.15544 -0.78784 -2.69544 30.06455 11.75941 4.32816 -30.66653 -8.22905 -0.74705 1.97016
-0.6812 -0.01591 -0.10086 277.92511 -27.08447 -3.68181 34.45346 4.9248 -1.87417 -6.02574 -0.13677 -2.11906 36.17518 14.56514 39.40076 125.80711 80.14535 0.19551 -1.62806 -1.91503 11.03081 -53.63144 100.52891 -106.59649 19.67121 -1.58655 55.58699 3.31917 -9.08277 -22.54263 -8.25435 -0.66272 -2.63913 29.56166 11.95539 4.40212 -30.74126 -8.33977 -0.79686 1.95026
-0.68221 -0.01662 -0.09366 279.26487 -27.13233 -3.3604 34.56332 4.87487 -1.86936 -6.14583 -0.08328 -2.11906 36.47839 14.57114 39.09624 125.71836 80.21437 0.90082 -1.12828 -2.02875 11.35927 -53.57242 100.39973 -107.72512 20.80902 -1.57538 55.11955 3.44626 -9.02262 -21.83826 -8.36958 -0.51443 -2.57233 29.04617 12.08969 4.40905 -30.75886 -8.42885 -0.8419 1.93193
-0.68308 -0.01709 -0.08621 280.56397 -27.12494 -3.09946 34.64898 4.89479 -1.89894 -6.20937 0.0049 -2.11906 36.75673 14.59618 38.81252 125.64323 80.27898 1.58976 -0.69364 -2.13505 11.59703 -53.59515 100.38429 -108.6489 22.05559 -1.59871 54.63195 3.50604 -8.95665 -21.54773 -8.45461 -0.42228 -2.53135 28.55229 12.34451 4.55437 -30.91115 -8.56498 -0.89645 1.91067
-0.68354 -0.01692 -0.07817 281.75897 -26.95338 -3.02058 34.64764 5.11273 -2.01614 -6.12704 0.19189 -2.11906 36.9532 14.67724 38.59297 125.60424 80.32879 2.19691 -0.46294 -2.20418 11.60632 -53.86505 100.6633 -108.92823 23.52707 -1.7428 54.1486 3.39015 -8.84602 -22.32422 -8.45606 -0.47844 -2.55846 28.0476 12.94486 5.13688 -31.35598 -8.82742 -0.9788 1.88046
-0.68386 -0.01649 -0.0699 282.91192 -26.73164 -3.00492 34.6242 5.40099 -2.1692 -5.98658 0.41343 -2.11907 37.12459 14.77822 38.39592 125.57894 80.37348 2.77646 -0.30564 -2.26993 11.52364 -54.21309 101.0605 -108.99125 25.09188 -1.91743 53.65124 3.21211 -8.73228 -23.48952 -8.42572 -0.58976 -2.61086 27.58375 13.66514 5.84357 -31.94953 -9.1369 -1.07036 1.84744
-0.68425 -0.01617 -0.06175 284.07886 -26.54834 -2.96064 34.62297 5.65587 -2.31034 -5.86756 0.61732 -2.11907 37.3111 14.87238 38.1896 125.54696 80.41887 3.35658 -0.12322 -2.35262 11.47511 -54.50948 101.419 -109.1556 26.60135 -2.06102 53.15561 3.07146 -8.63302 -24.44195 -8.4071 -0.67501 -2.65116 27.15847 14.32613 6.44937 -32.52177 -9.42605 -1.15684 1.81609
-0.6846 -0.01591 -0.05351 285.26673 -26.29938 -2.91355 34.57326 5.91657 -2.43277 -5.76927 0.82892 -2.11907 37.48296 14.95824 37.97792 125.51623 80.47051 3.9949 0.09975 -2.37229 11.45653 -54.87231 101.71689 -109.31809 28.17638 -2.27513 52.67327 2.88924 -8.47899 -25.564 -8.40049 -0.76567 -2.6946 26.48908 15.00835 7.24498 -32.89726 -9.712 -1.2474 1.78296
-0.68501 -0.01545 -0.04542 286.40185 -26.17344 -2.88831 34.61603 6.18166 -2.60302 -5.61407 1.03324 -2.11907 37.679 15.06396 37.78336 125.48722 80.50927 4.50272 0.21828 -2.51922 11.35538 -55.11767 102.16534 -109.42883 29.63496 -2.352 52.16131 2.77956 -8.43885 -26.42 -8.36127 -0.85767 -2.73727 26.33938 15.67289 7.67353 -33.72045 -10.01453 -1.33124 1.75303
-0.68566 -0.01445 -0.03777 287.39388 -26.42065 -2.90647 34.94626 6.44439 -2.8925 -5.31676 1.20426 -2.11907 37.94683 15.24158 37.6298 125.44937 80.49897 4.653 0.07064 -3.04926 11.03937 -54.99801 103.03384 -109.45049 30.72063 -2.02213 51.58382 2.89038 -8.70547 -26.4284 -8.23826 -0.9402 -2.77165 27.60867 16.27814 7.0649 -35.71411 -10.36027 -1.39753 1.73128
-0.68639 -0.01326 -0.0303 288.33532 -26.78988 -2.94477 35.36544 6.70839 -3.22891 -4.96434 1.3676 -2.11908 38.23938 15.435 37.49328 125.41455 80.47797 4.67181 -0.18096 -3.70239 10.64532 -54.76117 104.04357 -109.42596 31.68808 -1.55697 50.97588 3.07572 -9.08828 -26.15611 -8.08378 -1.02189 -2.80428 29.40003 16.85796 6.08283 -38.15539 -10.71884 -1.45584 1.71322
-0.68707 -0.01218 -0.02279 289.30552 -27.08932 -2.97543 35.72618 6.97045 -3.54736 -4.63634 1.53765 -2.11908 38.52191 15.60632 37.34931 125.3851 80.47212 4.75315 -0.38874 -4.27836 10.29347 -54.59238 104.96691 -109.42021 32.72801 -1.16697 50.37426 3.2244 -9.4232 -26.02162 -7.94455 -1.10364 -2.83768 30.95794 17.43724 5.2648 -40.41481 -11.06629 -1.51607 1.6942
-0.6878 -0.01099 -0.0151 290.25156 -27.44666 -3.00288 36.16161 7.24182 -3.85575 -4.30785 1.69558 -2.11908 38.8007 15.83938 37.20378 125.32801 80.42495 4.82478 -0.58525 -4.94159 9.9103 -54.36487 105.98827 -109.41579 33.6973 -0.71994 49.8029 3.38342 -9.73705 -25.85868 -7.80001 -1.18889 -2.87221 32.50523 18.07205 4.46781 -42.60123 -11.43983 -1.58508 1.67153
-0.68844 -0.00997 -0.00782 291.23436 -27.7141 -3.0397 36.46366 7.49177 -4.19215 -3.96942 1.87613 -2.11908 39.09065 15.94977 37.06661 125.32857 80.45849 4.88213 -0.82809 -5.45509 9.5746 -54.22955 106.83731 -109.40125 34.77809 -0.35959 49.16257 3.53848 -10.12274 -25.6821 -7.65977 -1.26567 -2.90348 34.19301 18.58322 3.54579 -45.02796 -11.75881 -1.63221 1.65805
-0.68881 -0.00946 -0.00157 292.34936 -27.69468 -3.10808 36.36874 7.69417 -4.62536 -3.6058 2.12343 -2.11909 39.42999 15.69667 36.93658 125.4911 80.7425 4.96382 -1.18105 -5.50112 9.39371 -54.38786 107.17679 -109.36327 36.24771 -0.26754 48.33057 3.67278 -10.67445 -25.5436 -7.53668 -1.32141 -2.92731 36.18359 18.76104 2.28998 -48.14127 -11.94666 -1.63481 1.66285
-0.68908 -0.00911 0.00427 293.50007 -27.58247 -3.18279 36.13789 7.8724 -5.07927 -3.2365 2.39276 -2.11909 39.77549 15.32339 36.81645 125.7106 81.1037 5.03059 -1.57533 -5.39634 9.26318 -54.64062 107.33733 -109.31895 37.82287 -0.26766 47.4322 3.79919 -11.29448 -25.39801 -7.41959 -1.36806 -2.94762 38.28852 18.81384 0.93459 -51.45216 -12.07497 -1.61336 1.67777
-0.68939 -0.00867 0.01027 294.62235 -27.51873 -3.24748 35.97392 8.05348 -5.50313 -2.87746 2.65076 -2.11909 40.10183 15.0187 36.69942 125.90188 81.41284 5.08264 -1.94531 -5.3768 9.10664 -54.84291 107.57849 -109.2831 39.31577 -0.22862 46.56962 3.92414 -11.88675 -25.24859 -7.30155 -1.41703 -2.96859 40.31404 18.92276 -0.32227 -54.58909 -12.21502 -1.59334 1.69233
-0.68975 -0.0083 0.01637 295.79354 -27.43261 -3.34354 35.79153 8.26888 -6.01544 -2.484 2.91567 -2.1191 40.49707 14.65552 36.55095 126.10393 81.79223 5.21788 -2.34209 -5.29254 8.95929 -55.07307 107.82714 -109.22214 40.95163 -0.17483 45.68105 4.07333 -12.47217 -25.11813 -7.17502 -1.47327 -2.99326 42.47719 19.03601 -1.81318 -58.11061 -12.41896 -1.61181 1.68979
-0.68996 -0.00784 0.02217 296.87302 -27.36948 -3.3749 35.61399 8.40716 -6.34829 -2.16167 3.16952 -2.1191 40.75124 14.38553 36.47003 126.29603 82.0451 5.18173 -2.69172 -5.30378 8.80731 -55.26909 108.01645 -109.21231 42.31356 -0.17357 44.8327 4.16871 -13.08282 -24.95172 -7.06786 -1.51273 -3.00968 44.3696 19.10808 -2.84019 -60.85517 -12.47709 -1.54618 1.72439
-0.68978 -0.00707 0.02733 297.68196 -27.39231 -3.23107 35.48342 8.33725 -6.17618 -2.03709 3.40456 -2.1191 40.60309 14.40076 36.57369 126.45501 81.91783 4.64487 -2.8982 -5.63119 8.61765 -55.34857 108.07878 -109.34765 42.91673 -0.31183 44.1001 4.1215 -13.77775 -24.67472 -7.01431 -1.50363 -3.00195 45.52164 19.1209 -2.51839 -61.54682 -12.13363 -1.24011 1.86592
-0.68944 -0.00623 0.0322 298.39923 -27.44112 -3.02102 35.36199 8.19082 -5.82338 -1.98466 3.62457 -2.11911 40.31484 14.51373 36.74472 126.60036 81.66252 3.9425 -3.05557 -6.05628 8.42423 -55.39084 108.08779 -109.53396 43.23669 -0.49759 43.41301 4.01935 -14.48924 -24.36573 -6.97995 -1.4788 -2.98644 46.38804 19.0923 -1.73226 -61.42028 -11.64813 -0.85321 2.04303
-0.68915 -0.00545 0.03718 299.16432 -27.47729 -2.83764 35.2356 8.08005 -5.55583 -1.89941 3.84024 -2.11911 40.09788 14.5834 36.88465 126.74655 81.4741 3.33698 -3.23703 -6.42598 8.24134 -55.45017 108.12541 -109.69621 43.67165 -0.6508 42.7123 3.93921 -15.17204 -24.08109 -6.93591 -1.4641 -2.97594 47.35952 19.06706 -1.18573 -61.57475 -11.23622 -0.51219 2.19948
-0.68896 -0.00458 0.04225 299.9046 -27.51294 -2.66825 35.10758 7.96439 -5.27558 -1.81374 4.10372 -2.11911 39.84856 14.64584 37.02742 126.91762 81.25295 2.63956 -3.41345 -6.83743 8.0234 -55.51211 108.13975 -109.86402 44.16853 -0.85225 41.97774 3.87103 -15.94676 -23.75397 -6.89598 -1.43652 -2.95911 48.43984 19.10252 -0.52342 -62.12337 -10.78329 -0.13045 2.37577
